<?xml version="1.0" encoding="utf-8"?>
<!-- Generator: Adobe Illustrator 22.1.0, SVG Export Plug-In . SVG Version: 6.00 Build 0)  -->
<svg version="1.1" id="Capa_1" xmlns="http://www.w3.org/2000/svg" xmlns:xlink="http://www.w3.org/1999/xlink" x="0px" y="0px"
	 viewBox="0 0 24 24" style="enable-background:new 0 0 24 24;" xml:space="preserve">
<style type="text/css">
	.st0{fill:#8B6B94;}
	.st1{fill:#A55D41;}
	.st2{fill:#020203;}
	.st3{fill:#E9E07B;}
</style>
<circle class="st0" cx="14.9" cy="15" r="9"/>
<g>
	<path class="st2" d="M11.3,17.3c-0.2,0-0.4,0.2-0.4,0.4s0.2,0.4,0.4,0.4h1.4c0.2,0,0.4-0.2,0.4-0.4s-0.2-0.4-0.4-0.4H11.3z"/>
	<path class="st2" d="M23.1,3.9h-3V0.7C20,0.3,19.7,0,19.3,0H4.7C4.3,0,4,0.3,4,0.7v3.2h-3C0.4,3.9,0,4.3,0,4.9v13.6
		c0,0.5,0.4,0.9,0.9,0.9h7.6v1.2v0c0,1.2-0.5,2.3-0.7,2.7H6.6c-0.2,0-0.4,0.2-0.4,0.4S6.4,24,6.6,24h10.7c0.2,0,0.4-0.2,0.4-0.4
		s-0.2-0.4-0.4-0.4h-1.1c-0.2-0.4-0.7-1.6-0.7-2.7v0v-1.2h2.7c0.2,0,0.4-0.2,0.4-0.4s-0.2-0.4-0.4-0.4H0.9c-0.1,0-0.2-0.1-0.2-0.2
		v-1.8h22.6v1.8c0,0.1-0.1,0.2-0.2,0.2h-3.2c-0.2,0-0.4,0.2-0.4,0.4s0.2,0.4,0.4,0.4h3.2c0.5,0,0.9-0.4,0.9-0.9V4.9
		C24,4.3,23.6,3.9,23.1,3.9L23.1,3.9z M9.2,20.5v-1.2h5.6v1.2c0,1.1,0.4,2.1,0.7,2.7H8.5C8.8,22.7,9.2,21.6,9.2,20.5z M1.8,6.5V16
		H0.7V4.9c0-0.1,0.1-0.2,0.2-0.2h3v1H2.7C2.2,5.6,1.8,6,1.8,6.5z M19.3,16H4.7v-2.7c0-0.2-0.2-0.4-0.4-0.4C4.1,12.9,4,13,4,13.2V16
		H2.5V6.5c0-0.1,0.1-0.2,0.1-0.2H4v5.3c0,0.2,0.2,0.4,0.4,0.4c0.2,0,0.4-0.2,0.4-0.4V0.7c0,0,0,0,0,0h14.6c0,0,0,0,0,0L19.3,16
		L19.3,16z M21.5,16H20V6.3h1.3c0.1,0,0.1,0.1,0.1,0.2V16z M23.3,16h-1.1V6.5c0-0.5-0.4-0.9-0.8-0.9H20v-1h3c0.1,0,0.2,0.1,0.2,0.2
		L23.3,16z"/>
	<path class="st2" d="M7,9.1c0.4,0.3,0.9,0.4,1.5,0.4c0.5,0,0.9-0.1,1.3-0.3c1-0.5,1.5-1.3,1.5-2.3V3.7c0-0.6-0.5-1.2-1.2-1.2
		C9.5,2.5,9,3,9,3.7v3.2C9,6.9,9,7,8.7,7.1c-0.1,0-0.1,0.1-0.2,0.1c-0.1,0-0.2,0-0.2-0.1C8.1,7,8.1,7,8.1,6.9V3.7
		c0-0.6-0.5-1.2-1.2-1.2S5.7,3,5.7,3.7v3.2C5.7,7.8,6.2,8.6,7,9.1L7,9.1z M6.4,3.7c0-0.3,0.2-0.5,0.5-0.5s0.5,0.2,0.5,0.5v3.2
		c0,0.3,0.2,0.6,0.5,0.8C8,7.8,8.3,7.9,8.5,7.9c0.2,0,0.4,0,0.6-0.1c0.6-0.3,0.6-0.6,0.6-0.9V3.7c0-0.3,0.2-0.5,0.5-0.5
		s0.5,0.2,0.5,0.5v3.2c0,0.7-0.4,1.3-1.1,1.7c-0.3,0.1-0.6,0.2-1,0.2c-0.4,0-0.8-0.1-1.1-0.3C6.7,8.1,6.4,7.6,6.4,6.9V3.7L6.4,3.7z"
		/>
	<path class="st2" d="M18,7.7l-1.4-1.8l1.1-1.5C18,4.1,18,3.8,18,3.5c0-0.3-0.2-0.6-0.5-0.8c-0.2-0.2-0.6-0.3-0.9-0.2
		c-0.3,0-0.6,0.2-0.8,0.5l-0.7,1l-0.7-1c-0.4-0.5-1.1-0.6-1.6-0.2s-0.6,1.1-0.2,1.6l1.1,1.5l-1.3,1.7c-0.2,0.2-0.3,0.6-0.2,0.9
		c0,0.3,0.2,0.6,0.5,0.8c0.2,0.2,0.5,0.2,0.7,0.2c0.4,0,0.7-0.2,0.9-0.5l0.9-1.2l1,1.3c0.2,0.3,0.6,0.5,0.9,0.5
		c0.3,0,0.5-0.1,0.7-0.2c0.2-0.2,0.4-0.5,0.5-0.8C18.3,8.2,18.2,7.9,18,7.7L18,7.7z M17.4,8.8c-0.1,0.1-0.2,0.1-0.3,0.1
		c-0.1,0-0.3-0.1-0.4-0.2L15.5,7c-0.1-0.1-0.2-0.1-0.3-0.1l0,0c-0.1,0-0.2,0.1-0.3,0.1l-1.2,1.6c-0.1,0.1-0.2,0.2-0.4,0.2
		c-0.1,0-0.2,0-0.3-0.1c-0.1-0.1-0.2-0.2-0.2-0.3c0-0.1,0-0.2,0.1-0.3l1.5-2c0.1-0.1,0.1-0.3,0-0.4l-1.3-1.7C13,3.7,13,3.4,13.2,3.3
		c0.2-0.2,0.5-0.1,0.7,0.1l1,1.3c0.1,0.1,0.2,0.1,0.3,0.1l0,0c0.1,0,0.2-0.1,0.3-0.1l1-1.3c0.1-0.1,0.2-0.2,0.3-0.2
		c0.1,0,0.2,0,0.3,0.1c0.1,0.1,0.2,0.2,0.2,0.3c0,0.1,0,0.2-0.1,0.3l-1.3,1.7c-0.1,0.1-0.1,0.3,0,0.4l1.5,2
		C17.6,8.3,17.6,8.6,17.4,8.8L17.4,8.8z"/>
	<path class="st2" d="M17.9,10.6H6.1c-0.2,0-0.4,0.2-0.4,0.4c0,0.2,0.2,0.4,0.4,0.4h11.8c0.2,0,0.4-0.2,0.4-0.4
		C18.3,10.8,18.1,10.6,17.9,10.6z"/>
	<path class="st2" d="M17.9,12.1H6.1c-0.2,0-0.4,0.2-0.4,0.4s0.2,0.4,0.4,0.4h11.8c0.2,0,0.4-0.2,0.4-0.4
		C18.3,12.2,18.1,12.1,17.9,12.1z"/>
	<path class="st2" d="M17.9,13.5H6.1c-0.2,0-0.4,0.2-0.4,0.4c0,0.2,0.2,0.4,0.4,0.4h11.8c0.2,0,0.4-0.2,0.4-0.4
		C18.3,13.6,18.1,13.5,17.9,13.5z"/>
</g>
</svg>
