<?xml version="1.0" encoding="utf-8"?>
<!-- Generator: Adobe Illustrator 22.1.0, SVG Export Plug-In . SVG Version: 6.00 Build 0)  -->
<svg version="1.1" id="Capa_1" xmlns="http://www.w3.org/2000/svg" xmlns:xlink="http://www.w3.org/1999/xlink" x="0px" y="0px"
	 viewBox="0 0 24 24" style="enable-background:new 0 0 24 24;" xml:space="preserve">
<style type="text/css">
	.st0{fill:#8B6B94;}
	.st1{fill:#A55D41;}
	.st2{fill:#020203;}
	.st3{fill:#E9E07B;}
</style>
<circle class="st1" cx="15" cy="15" r="9"/>
<g>
	<path class="st2" d="M8.8,17.2H8.5v-1.8c0-0.3-0.2-0.5-0.5-0.5H7.6l1.5-4.1c0.2-0.5,0.1-1-0.1-1.5L7.3,6.4C7,5.9,6.5,5.6,5.9,5.6
		H3.7c-0.6,0-1.1,0.3-1.4,0.8L0.7,9.2c-0.3,0.4-0.3,1-0.1,1.5l1.5,4.1H1.7c-0.3,0-0.5,0.2-0.5,0.5v1.8H0.8c-0.3,0-0.6,0.4-0.5,0.7
		l1.5,5c0.1,0.2,0.3,0.4,0.5,0.4h4.9c0.2,0,0.4-0.2,0.5-0.4l1.5-5C9.4,17.5,9.1,17.2,8.8,17.2z M4.8,10c0.3,0,0.6,0.3,0.6,0.6
		c0,0.3-0.3,0.6-0.6,0.6c-0.3,0-0.6-0.3-0.6-0.6C4.2,10.2,4.5,10,4.8,10z M1.5,10.3c-0.1-0.2-0.1-0.4,0-0.6l1.6-2.9
		c0.2-0.4,0.7-0.3,1-0.3V9c-0.7,0.2-1.1,0.8-1.1,1.6c0,0.9,0.7,1.7,1.7,1.7c0.9,0,1.7-0.7,1.7-1.7C6.5,9.8,6,9.2,5.3,9V6.6
		c0.4,0,0.8-0.1,1,0.3L8,9.8c0.1,0.2,0.1,0.4,0,0.6l-1.7,4.5H3.2L1.5,10.3z M2.2,15.9h5.2v1.3H2.2V15.9z M8.1,18.2l-1.2,4H5.4v-0.6
		c0-0.7-1.1-0.7-1.1,0v0.6H2.7l-1.2-4H8.1z"/>
	<path class="st2" d="M8.6,1.6c-0.5,0-0.8,0.3-1,0.7H6V1.7c0-0.2-0.1-0.3-0.3-0.3H3.9c-0.2,0-0.3,0.1-0.3,0.3v0.6H2
		C1.9,1.9,1.5,1.6,1,1.6c-0.6,0-1,0.5-1,1s0.5,1,1,1c0.5,0,0.8-0.3,1-0.7h1.6v0.6c0,0.2,0.1,0.3,0.3,0.3h1.8C5.9,3.8,6,3.7,6,3.5
		V2.9h1.6c0.1,0.4,0.5,0.7,1,0.7c0.6,0,1-0.5,1-1C9.6,2,9.2,1.6,8.6,1.6z M1,3C0.8,3,0.7,2.8,0.7,2.6c0-0.2,0.2-0.4,0.4-0.4
		s0.4,0.2,0.4,0.4C1.4,2.8,1.2,3,1,3z M5.4,3.2H4.2V2h1.1V3.2z M8.6,3C8.4,3,8.2,2.8,8.2,2.6c0-0.2,0.2-0.4,0.4-0.4
		C8.8,2.2,9,2.4,9,2.6C9,2.8,8.8,3,8.6,3z"/>
	<path class="st2" d="M15.2,9.8c0.7,0,1.3-0.4,1.6-1.1h4c0.2,0.6,0.8,1.1,1.6,1.1c0.9,0,1.7-0.7,1.7-1.7c0-1-1-1.8-2-1.6l-2-3.7
		c0.3-0.3,0.4-0.7,0.4-1.1c0-0.9-0.7-1.7-1.7-1.7c-0.9,0-1.7,0.7-1.7,1.7c0,0.4,0.2,0.8,0.4,1.1l-2,3.7c-1-0.2-2,0.6-2,1.6
		C13.6,9.1,14.3,9.8,15.2,9.8z M18.8,3.3c0.1,0,0.2,0,0.3,0l2,3.8c-0.2,0.2-0.3,0.4-0.4,0.6h-3.9c-0.1-0.2-0.2-0.4-0.4-0.6l2-3.8
		C18.6,3.3,18.7,3.3,18.8,3.3z M23,8.2c0,0.3-0.3,0.6-0.6,0.6c-0.3,0-0.6-0.3-0.6-0.6c0-0.3,0.3-0.6,0.6-0.6C22.7,7.6,23,7.8,23,8.2
		z M18.8,1.1c0.3,0,0.6,0.3,0.6,0.6s-0.3,0.6-0.6,0.6S18.2,2,18.2,1.7C18.2,1.3,18.5,1.1,18.8,1.1z M15.2,7.6c0.3,0,0.6,0.3,0.6,0.6
		c0,0.3-0.3,0.6-0.6,0.6c-0.3,0-0.6-0.3-0.6-0.6C14.6,7.8,14.9,7.6,15.2,7.6z"/>
	<path class="st2" d="M22.9,20v-4.3c0.7-0.2,1.1-0.8,1.1-1.6c0-0.9-0.7-1.7-1.7-1.7c-0.7,0-1.3,0.4-1.5,1h-4.4c-0.3-0.6-0.8-1-1.5-1
		c-0.9,0-1.7,0.7-1.7,1.7c0,0.7,0.5,1.4,1.2,1.6v0c0,0.3,0.2,0.5,0.5,0.5c0.3,0,0.5-0.3,0.5-0.6c0.5-0.2,0.9-0.6,1-1.2h4.2
		c0.1,0.5,0.5,1,1.1,1.2V20c-0.5,0.2-0.9,0.6-1,1h-4.3c-0.2-0.5-0.5-0.9-1-1c0-0.3-0.2-0.5-0.5-0.5c-0.3,0-0.5,0.2-0.5,0.5
		c-0.7,0.2-1.2,0.8-1.2,1.6c0,0.9,0.7,1.7,1.7,1.7c0.7,0,1.4-0.5,1.6-1.1h4.3c0.2,0.7,0.8,1.1,1.6,1.1c0.9,0,1.7-0.7,1.7-1.7
		C24,20.9,23.5,20.3,22.9,20z M14.9,14.8c-0.3,0-0.6-0.3-0.6-0.6c0-0.3,0.3-0.6,0.6-0.6c0.3,0,0.6,0.3,0.6,0.6
		C15.5,14.5,15.3,14.8,14.9,14.8z M22.4,13.6c0.3,0,0.6,0.3,0.6,0.6c0,0.3-0.3,0.6-0.6,0.6c-0.3,0-0.6-0.3-0.6-0.6
		C21.8,13.9,22,13.6,22.4,13.6z M14.9,22.2c-0.3,0-0.6-0.3-0.6-0.6c0-0.3,0.3-0.6,0.6-0.6c0.3,0,0.6,0.3,0.6,0.6
		C15.5,21.9,15.3,22.2,14.9,22.2z M22.4,22.2c-0.3,0-0.6-0.3-0.6-0.6c0-0.3,0.3-0.6,0.6-0.6s0.6,0.3,0.6,0.6
		C23,21.9,22.7,22.2,22.4,22.2z"/>
	<path class="st2" d="M14.8,18.4c0.3,0.1,0.6,0,0.7-0.3s0-0.6-0.3-0.7c-0.3-0.1-0.6,0-0.7,0.3S14.5,18.3,14.8,18.4z"/>
	<path class="st2" d="M5.1,19.1c-0.3-0.2-0.6-0.1-0.8,0.2c-0.1,0.2-0.1,0.6,0.2,0.7c0.3,0.2,0.6,0.1,0.7-0.2
		C5.4,19.5,5.3,19.2,5.1,19.1z"/>
</g>
</svg>
