<?xml version="1.0" encoding="utf-8"?>
<!-- Generator: Adobe Illustrator 22.1.0, SVG Export Plug-In . SVG Version: 6.00 Build 0)  -->
<svg version="1.1" id="Capa_1" xmlns="http://www.w3.org/2000/svg" xmlns:xlink="http://www.w3.org/1999/xlink" x="0px" y="0px"
	 viewBox="0 0 24 24" style="enable-background:new 0 0 24 24;" xml:space="preserve">
<style type="text/css">
	.st0{fill:#8B6B94;}
	.st1{fill:#A55D41;}
	.st2{fill:#020203;}
	.st3{fill:#E9E07B;}
</style>
<circle class="st3" cx="15" cy="15" r="9"/>
<g>
	<path class="st2" d="M2.5,4.5C2.5,4.2,2.3,4,2.1,4S1.6,4.2,1.6,4.5c0,0.2,0.2,0.4,0.4,0.4S2.5,4.7,2.5,4.5z"/>
	<path class="st2" d="M15.2,2.6c0.2,0,0.4-0.2,0.4-0.4c0-0.2-0.2-0.4-0.4-0.4s-0.4,0.2-0.4,0.4C14.8,2.4,15,2.6,15.2,2.6z"/>
	<path class="st2" d="M10.1,7.9c0.1,0,0.1,0,0.2,0c0.5-0.2,0.8-0.7,0.9-1.2c0-0.2-0.1-0.4-0.3-0.5c-0.2,0-0.4,0.1-0.5,0.3
		C10.4,6.8,10.2,7,9.9,7.1C9.8,7.2,9.7,7.5,9.8,7.7C9.9,7.8,10,7.9,10.1,7.9L10.1,7.9z"/>
	<path class="st2" d="M20.8,15.5h-1.6v-0.8c0-0.2-0.2-0.4-0.4-0.4h-0.6l1-8.7c0-0.3,0-0.5-0.2-0.7c-0.2-0.2-0.4-0.3-0.7-0.4
		l-1.9-0.2c-0.3,0-0.5,0-0.7,0.2c-0.2,0.2-0.3,0.4-0.4,0.7l-1.1,9.2h-1.3l1.1-2.5c0.2-0.5,0.2-1,0-1.5c-0.2-0.5-0.6-0.9-1-1.1
		c-0.5-0.2-1-0.2-1.5,0c-0.5,0.2-0.9,0.6-1.1,1l-1.7,4.1H8.6l1.4-5.2c1-0.2,1.8-0.9,2.2-1.9c0.1-0.3,0.1-0.7,0.1-1.2
		c0-0.3-0.1-0.7-0.1-0.9c-0.1-0.3-0.1-0.6-0.1-0.9c0-2.1,1.7-3.4,1.7-3.4c0.1-0.1,0.2-0.3,0.1-0.5C13.8,0.1,13.7,0,13.5,0
		c-2.1,0.5-3.8,1.3-5.1,2.5l0,0c-1,0.9-1.4,1.8-1.7,2.4C6.4,5.4,6.4,6,6.4,6.5c0.1,0.5,0.3,1,0.6,1.4L6.3,10L6.1,9.4
		C5.9,8.9,5.5,8.5,5,8.2C4.6,8,4,8,3.6,8.2c-0.5,0.2-0.9,0.5-1.1,1s-0.3,1-0.1,1.5l0.5,1.5l0,0l0,0l0.5,1.3l0,0l0,0l0.3,0.9H2.3
		c-0.2,0-0.4,0.2-0.4,0.4v5.9c0,1.9,1.5,3.4,3.4,3.4h10.5c1.9,0,3.4-1.5,3.4-3.4v-0.1h1.6c0.8,0,1.5-0.7,1.5-1.5V17
		C22.4,16.2,21.7,15.5,20.8,15.5L20.8,15.5z M18.3,8l-0.1,1.1l-2.3-0.3L16,7.7L18.3,8z M16.5,5l1.9,0.2c0.1,0,0.1,0,0.1,0.1
		c0,0,0.1,0.1,0,0.2l-0.2,1.7l-2.3-0.3l0.2-1.7C16.3,5.1,16.4,5,16.5,5L16.5,5z M15.7,9.6L18,9.9l-0.5,4.4h-2.3L15.7,9.6z
		 M10.6,12.4l2.2,0.9l-0.2,0.6l-2.2-0.9L10.6,12.4z M11.4,10.6c0.1-0.3,0.4-0.5,0.7-0.6c0.3-0.1,0.6-0.1,0.9,0s0.5,0.4,0.6,0.7
		c0.1,0.3,0.1,0.6,0,0.9l-0.5,1.1l-2.2-0.9L11.4,10.6z M10,13.7l1.6,0.7H9.7L10,13.7z M5.5,14.3l0.3-0.8l2.1,0.7l0,0.1H5.5z M8.7,9
		c0.2,0.1,0.4,0.1,0.6,0.1l-0.4,1.4L7.1,10l0.6-1.5C8,8.7,8.3,8.9,8.7,9L8.7,9z M8.7,11.3l-0.6,2.2l-2-0.6l0.8-2.1L8.7,11.3z
		 M3.7,12.2l2-0.7l-0.3,0.8l-1.5,0.5L3.7,12.2z M11.4,3.4c-0.1-0.1-0.2-0.2-0.4-0.3c-0.2-0.1-0.5-0.1-0.8,0L9.7,3.3
		c-0.1,0-0.2,0-0.3,0S9.2,3.2,9.2,3.1L9.1,2.9c0.9-0.8,2-1.4,3.3-1.8C12,1.7,11.6,2.4,11.4,3.4L11.4,3.4z M7.4,5.2
		c0.2-0.4,0.5-1,1.1-1.7C8.6,3.7,8.8,3.9,9.1,4C9.4,4.2,9.7,4.2,10,4l0.6-0.2c0.1,0,0.1,0,0.2,0c0,0,0.1,0,0.1,0.1
		c0.1,0.2,0.3,0.4,0.5,0.5c0,0.3,0,0.5,0.1,0.8c0.1,0.2,0.1,0.5,0.1,0.8c0,0.4,0,0.7-0.1,0.9c-0.2,0.5-0.5,0.9-1,1.2
		c-0.5,0.2-1,0.3-1.6,0.1C8,8,7.4,7.3,7.2,6.4C7.2,6,7.2,5.6,7.4,5.2L7.4,5.2z M3.1,9.5C3.3,9.2,3.5,9,3.8,8.9
		c0.3-0.1,0.6-0.1,0.9,0.1C5,9.1,5.2,9.3,5.3,9.6l0.4,1.1l-2.2,0.8l-0.4-1.1C3,10.1,3,9.8,3.1,9.5z M4.2,13.6l0.9-0.3l-0.4,1.1H4.5
		L4.2,13.6z M18.5,20.6c0,1.5-1.2,2.6-2.6,2.6H5.3c-1.5,0-2.6-1.2-2.6-2.6v-5.5h15.8v0.8v4.3V20.6z M21.6,19c0,0.4-0.3,0.8-0.8,0.8
		h-1.6v-3.5h1.6c0.4,0,0.8,0.3,0.8,0.8V19z"/>
</g>
</svg>
