<?xml version="1.0" encoding="utf-8"?>
<!-- Generator: Adobe Illustrator 22.1.0, SVG Export Plug-In . SVG Version: 6.00 Build 0)  -->
<svg version="1.1" id="Capa_1" xmlns="http://www.w3.org/2000/svg" xmlns:xlink="http://www.w3.org/1999/xlink" x="0px" y="0px"
	 viewBox="0 0 512 512" style="enable-background:new 0 0 512 512;" xml:space="preserve">
<style type="text/css">
	.st0{fill:#A45C40;}
</style>
<circle class="st0" cx="310.2" cy="308.1" r="193"/>
<path d="M222.9,364.6h-5.3v-34.8c0-5.6-4.5-10.1-10.1-10.1h-7.7l28.8-77.7c3.4-9.2,2.6-19.4-2.3-27.9l-31.2-54.3
	c-5.4-9.4-15.5-15.2-26.3-15.2h-42.2c-10.8,0-20.9,5.8-26.3,15.2L69,214.1c-4.9,8.5-5.7,18.7-2.3,27.9l28.8,77.7h-7.7
	c-5.6,0-10.1,4.5-10.1,10.1v34.8h-5.3c-6.6,0-11.6,6.7-9.7,13l28.4,95.6c1.3,4.3,5.2,7.2,9.7,7.2h93.7c4.5,0,8.4-2.9,9.7-7.2
	l28.4-95.6C234.5,371.2,229.5,364.6,222.9,364.6z M147.6,227.8c6.2,0,11.3,5.1,11.3,11.3c0,6.2-5.1,11.3-11.3,11.3
	c-6.2,0-11.3-5.1-11.3-11.3C136.3,232.9,141.4,227.8,147.6,227.8z M85.6,234.9c-1.3-3.5-1-7.5,0.9-10.8l31.2-54.3
	c3.9-6.7,13.2-5.1,19.8-5.1v44.4c-12.5,4.2-21.5,16-21.5,29.9c0,17.4,14.2,31.6,31.6,31.6c17.4,0,31.6-14.2,31.6-31.6
	c0-13.9-9-25.7-21.5-29.9v-44.4c6.8,0,15.5-1.6,19.8,5.1l31.2,54.3c1.9,3.3,2.2,7.2,0.9,10.8l-31.4,84.7h-61.2L85.6,234.9z
	 M97.9,339.9h99.5v24.7H97.9V339.9z M209.3,384.9L187,460.1h-29.2v-11.5c0-13-20.2-13-20.2,0v11.5h-29.2L86,384.9H209.3z"/>
<path d="M263.7,37c-13.9,0-25.7,9-29.9,21.5h-48.6V41.1c0-5.6-4.5-10.1-10.1-10.1h-55c-5.6,0-10.1,4.5-10.1,10.1v17.4H61.5
	C57.2,46,45.4,37,31.6,37C14.2,37,0,51.2,0,68.6c0,17.4,14.2,31.6,31.6,31.6c13.9,0,25.7-9,29.9-21.5H110v17.4
	c0,5.6,4.5,10.1,10.1,10.1h55c5.6,0,10.1-4.5,10.1-10.1V78.7h48.5c4.2,12.5,16,21.5,29.9,21.5c17.4,0,31.6-14.2,31.6-31.6
	C295.3,51.2,281.1,37,263.7,37z M31.6,79.9c-6.2,0-11.3-5.1-11.3-11.3c0-6.2,5.1-11.3,11.3-11.3c6.2,0,11.3,5.1,11.3,11.3
	C42.9,74.9,37.8,79.9,31.6,79.9z M165,86h-34.7V51.2H165V86z M263.7,79.9c-6.2,0-11.3-5.1-11.3-11.3c0-6.2,5.1-11.3,11.3-11.3
	c6.2,0,11.3,5.1,11.3,11.3C275,74.9,270,79.9,263.7,79.9z"/>
<path d="M345.3,225.3c13.5,0,25.1-8.5,29.6-20.5h76c4.5,11.9,16.1,20.5,29.6,20.5c17.4,0,31.6-14.2,31.6-31.6
	c0-19.5-18.3-34.6-37.4-31l-38.6-71c5.2-5.6,8.4-13.2,8.4-21.4c0-17.4-14.2-31.6-31.6-31.6c-17.4,0-31.6,14.2-31.6,31.6
	c0,8.3,3.2,15.8,8.4,21.4l-38.6,71c-19.1-3.6-37.4,11.5-37.4,31C313.7,211.2,327.9,225.3,345.3,225.3z M412.9,101.8
	c1.8,0,3.6-0.2,5.4-0.5l38.7,71.3c-3.1,3.4-5.4,7.5-6.7,11.9h-74.7c-1.4-4.5-3.7-8.5-6.7-11.9l38.7-71.3
	C409.2,101.7,411,101.8,412.9,101.8z M491.7,193.8c0,6.2-5.1,11.3-11.3,11.3s-11.3-5.1-11.3-11.3c0-6.2,5.1-11.3,11.3-11.3
	C486.7,182.4,491.7,187.5,491.7,193.8z M412.9,58.9c6.2,0,11.3,5.1,11.3,11.3c0,6.2-5.1,11.3-11.3,11.3c-6.2,0-11.3-5.1-11.3-11.3
	C401.5,64,406.6,58.9,412.9,58.9z M345.3,182.4c6.2,0,11.3,5.1,11.3,11.3c0,6.2-5.1,11.3-11.3,11.3c-6.2,0-11.3-5.1-11.3-11.3
	C334,187.5,339,182.4,345.3,182.4z"/>
<path d="M490.5,418.7V338c12.5-4.2,21.5-16,21.5-29.9c0-17.4-14.2-31.6-31.6-31.6c-12.9,0-24.1,7.8-29,19h-82.7
	c-4.9-11.2-16-19-29-19c-17.4,0-31.6,14.2-31.6,31.6c0,14.1,9.3,26.1,22,30.1v0.2c0,5.6,4.5,10.1,10.1,10.1c5.8,0,10.2-5,10.1-10.7
	c9.8-3.5,17.4-11.8,19.9-22h79.4c2.6,10.4,10.4,18.8,20.5,22.2v80.7c-9.3,3.1-16.6,10.5-19.8,19.8h-80.8
	c-3.1-9.1-10.2-16.3-19.2-19.6c0-5.6-4.4-10.4-10.1-10.4c-5.5,0-10,4.5-10.1,10c-12.8,4-22.1,16-22.1,30.1
	c0,17.4,14.2,31.6,31.6,31.6c13.9,0,25.7-9,29.9-21.5h80.8c4.2,12.5,16,21.5,29.9,21.5c17.4,0,31.6-14.2,31.6-31.6
	C512,434.8,503,422.9,490.5,418.7z M339.8,319.4c-6.2,0-11.3-5.1-11.3-11.3c0-6.2,5.1-11.3,11.3-11.3c6.2,0,11.3,5.1,11.3,11.3
	C351.1,314.3,346,319.4,339.8,319.4z M480.4,296.8c6.2,0,11.3,5.1,11.3,11.3c0,6.2-5.1,11.3-11.3,11.3c-6.2,0-11.3-5.1-11.3-11.3
	C469.1,301.9,474.2,296.8,480.4,296.8z M339.8,459.9c-6.2,0-11.3-5.1-11.3-11.3c0-6.2,5.1-11.3,11.3-11.3c6.2,0,11.3,5.1,11.3,11.3
	C351.1,454.9,346,459.9,339.8,459.9z M480.4,459.9c-6.2,0-11.3-5.1-11.3-11.3c0-6.2,5.1-11.3,11.3-11.3c6.2,0,11.3,5.1,11.3,11.3
	C491.8,454.9,486.7,459.9,480.4,459.9z"/>
<path d="M336.5,387.7c5.1,2.1,11.1-0.4,13.2-5.5c2.1-5.1-0.4-11.1-5.5-13.2c-5.1-2.1-11.1,0.4-13.2,5.5
	C328.9,379.6,331.4,385.6,336.5,387.7z"/>
<path d="M153.3,400.4c-4.8-3.2-11.4-1.7-14.3,3.2c-2.8,4.7-1.2,11,3.5,13.9c4.8,2.9,11.2,1.2,14-3.6
	C159.1,409.2,157.6,403.3,153.3,400.4z"/>
</svg>
