<?xml version="1.0" encoding="utf-8"?>
<!-- Generator: Adobe Illustrator 22.1.0, SVG Export Plug-In . SVG Version: 6.00 Build 0)  -->
<svg version="1.1" id="Capa_1" xmlns="http://www.w3.org/2000/svg" xmlns:xlink="http://www.w3.org/1999/xlink" x="0px" y="0px"
	 viewBox="0 0 24 24" style="enable-background:new 0 0 24 24;" xml:space="preserve">
<style type="text/css">
	.st0{fill:#908FB2;}
</style>
<circle class="st0" cx="15" cy="15" r="9"/>
<path d="M7.5,19.8H4.2V9.2h3.3V19.8z M7.8,5.9c0-1.1-0.9-1.9-1.9-1.9C4.8,3.9,4,4.8,4,5.9c0,1.1,0.9,1.9,1.9,1.9
	C7,7.8,7.8,6.9,7.8,5.9z M19.8,14c0-2.8-0.6-5-3.9-5c-1.6,0-2.7,0.8-3.1,1.6h0V9.2H9.6v10.6h3.2v-5.3c0-1.4,0.4-2.7,2.1-2.7
	c1.7,0,1.7,1.6,1.7,2.8v5.2h3.2V14z M24,21.2V2.8C24,1.3,22.7,0,21.2,0H2.8C1.3,0,0,1.3,0,2.8v18.4C0,22.7,1.3,24,2.8,24h18.4
	C22.7,24,24,22.7,24,21.2z M21.2,1.9c0.5,0,0.9,0.4,0.9,0.9v18.4c0,0.5-0.4,0.9-0.9,0.9H2.8c-0.5,0-0.9-0.4-0.9-0.9V2.8
	c0-0.5,0.4-0.9,0.9-0.9H21.2z"/>
</svg>
