<?xml version="1.0" encoding="utf-8"?>
<!-- Generator: Adobe Illustrator 22.1.0, SVG Export Plug-In . SVG Version: 6.00 Build 0)  -->
<svg version="1.1" id="Capa_1" xmlns="http://www.w3.org/2000/svg" xmlns:xlink="http://www.w3.org/1999/xlink" x="0px" y="0px"
	 viewBox="0 0 24 24" style="enable-background:new 0 0 24 24;" xml:space="preserve">
<style type="text/css">
	.st0{fill:#CCFFD9;}
</style>
<circle class="st0" cx="15" cy="15" r="9"/>
<g>
	<g>
		<path d="M21.8,3.9H2.1C0.9,3.9,0,4.9,0,6v14c0,1.2,0.9,2.1,2.1,2.1h19.7c1.2,0,2.1-0.9,2.1-2.1V6C23.9,4.9,23,3.9,21.8,3.9z
			 M21.5,5.3L12,14.9L2.4,5.3H21.5z M1.4,19.8V6.3L8.1,13L1.4,19.8z M2.4,20.8L9.1,14l2.4,2.3c0.3,0.3,0.7,0.3,1,0l2.3-2.3l6.7,6.7
			H2.4z M22.5,19.8L15.8,13l6.7-6.7V19.8z"/>
	</g>
</g>
</svg>
