<?xml version="1.0" encoding="utf-8"?>
<!-- Generator: Adobe Illustrator 22.1.0, SVG Export Plug-In . SVG Version: 6.00 Build 0)  -->
<svg version="1.1" id="Capa_1" xmlns="http://www.w3.org/2000/svg" xmlns:xlink="http://www.w3.org/1999/xlink" x="0px" y="0px"
	 viewBox="0 0 24 24" style="enable-background:new 0 0 24 24;" xml:space="preserve">
<style type="text/css">
	.st0{fill:#E57373;}
</style>
<circle class="st0" cx="15" cy="15" r="9"/>
<path d="M22.1,4.7L24,2.9V2.5h-6.6l-4.7,11.8L7.3,2.5h-7v0.4l2.2,2.7c0.2,0.2,0.3,0.5,0.3,0.8V17c0.1,0.4-0.1,0.8-0.3,1L0,21.1v0.4
	h7.1v-0.4l-2.5-3c-0.3-0.3-0.4-0.7-0.3-1V7.8l6.3,13.7h0.7l5.4-13.7v10.9c0,0.3,0,0.3-0.2,0.5l-1.9,1.9v0.4H24v-0.4l-1.9-1.8
	c-0.2-0.1-0.2-0.3-0.2-0.5V5.3C21.8,5.1,21.9,4.9,22.1,4.7L22.1,4.7z"/>
</svg>
